<?xml version="1.0" encoding="UTF-8" standalone="no"?>
<svg
   xmlns:dc="http://purl.org/dc/elements/1.1/"
   xmlns:cc="http://creativecommons.org/ns#"
   xmlns:rdf="http://www.w3.org/1999/02/22-rdf-syntax-ns#"
   xmlns:svg="http://www.w3.org/2000/svg"
   xmlns="http://www.w3.org/2000/svg"
   xmlns:sodipodi="http://sodipodi.sourceforge.net/DTD/sodipodi-0.dtd"
   xmlns:inkscape="http://www.inkscape.org/namespaces/inkscape"
   width="64"
   height="64"
   version="1.1"
   id="svg2"
   sodipodi:docname="me.appadeia.Victoria.svg"
   inkscape:version="0.92.4 (5da689c313, 2019-01-14)">
  <metadata
     id="metadata8">
    <rdf:RDF>
      <cc:Work
         rdf:about="">
        <dc:format>image/svg+xml</dc:format>
        <dc:type
           rdf:resource="http://purl.org/dc/dcmitype/StillImage" />
        <dc:title />
      </cc:Work>
    </rdf:RDF>
  </metadata>
  <defs
     id="defs6" />
  <sodipodi:namedview
     pagecolor="#ffffff"
     bordercolor="#666666"
     borderopacity="1"
     objecttolerance="10"
     gridtolerance="10"
     guidetolerance="10"
     inkscape:pageopacity="0"
     inkscape:pageshadow="2"
     inkscape:window-width="1920"
     inkscape:window-height="987"
     id="namedview4"
     showgrid="true"
     showguides="true"
     inkscape:guide-bbox="true"
     inkscape:current-layer="layer1"
     inkscape:pagecheckerboard="true"
     inkscape:zoom="11.313709"
     inkscape:cx="46.05207"
     inkscape:cy="42.344736"
     inkscape:window-x="1280"
     inkscape:window-y="34"
     inkscape:window-maximized="1"
     inkscape:snap-smooth-nodes="true"
     inkscape:snap-bbox="false"
     inkscape:bbox-nodes="true"
     inkscape:snap-others="false"
     inkscape:snap-nodes="true"
     inkscape:object-nodes="false"
     inkscape:object-paths="false"
     inkscape:snap-grids="false">
    <inkscape:grid
       type="xygrid"
       id="grid10"
       empspacing="4" />
    <sodipodi:guide
       position="-6,58"
       orientation="0,1"
       id="guide12"
       inkscape:locked="false" />
    <sodipodi:guide
       position="6,70"
       orientation="1,0"
       id="guide14"
       inkscape:locked="false" />
    <sodipodi:guide
       position="70,6"
       orientation="0,1"
       id="guide16"
       inkscape:locked="false" />
    <sodipodi:guide
       position="58,-6"
       orientation="1,0"
       id="guide18"
       inkscape:locked="false" />
  </sodipodi:namedview>
  <g
     inkscape:groupmode="layer"
     id="layer1"
     inkscape:label="Base"
     style="display:inline">
    <rect
       style="opacity:1;fill:#f4ff81;fill-opacity:1;stroke:none;stroke-width:2.26077676;stroke-miterlimit:4;stroke-dasharray:none;stroke-opacity:1"
       id="rect819"
       width="52"
       height="46"
       x="6"
       y="6"
       ry="3.5384614" />
    <path
       style="opacity:1;fill:#ffd600;fill-opacity:1;stroke:none;stroke-width:2.40370083;stroke-miterlimit:4;stroke-dasharray:none;stroke-opacity:1"
       d="m 6,48 v 6 c 0,2.216 1.784,4 4,4 h 44 c 2.216,0 4,-1.784 4,-4 v -6 c 0,2.216 -1.784,4 -4,4 H 10 C 7.784,52 6,50.216 6,48 Z"
       id="rect819-3"
       inkscape:connector-curvature="0" />
    <rect
       style="opacity:1;fill:#dfdfdf;fill-opacity:1;stroke:none;stroke-width:1.89014554;stroke-miterlimit:4;stroke-dasharray:none;stroke-opacity:1"
       id="rect819-7"
       width="44"
       height="38"
       x="10"
       y="10"
       ry="2.9230771" />
    <path
       style="opacity:1;fill:#b1c200;fill-opacity:1;stroke:none;stroke-width:1.89014554;stroke-miterlimit:4;stroke-dasharray:none;stroke-opacity:1"
       d="M 12.923828,10 C 11.304443,10 10,11.304443 10,12.923828 v 4 C 10,15.304443 11.304443,14 12.923828,14 H 51.076172 C 52.695557,14 54,15.304443 54,16.923828 v -4 C 54,11.304443 52.695557,10 51.076172,10 Z"
       id="rect819-7-1"
       inkscape:connector-curvature="0" />
  </g>
  <g
     inkscape:groupmode="layer"
     id="layer2"
     inkscape:label="Foreground"
     style="display:inline">
    <ellipse
       style="opacity:1;fill:#b1c200;fill-opacity:1;stroke:none;stroke-width:1.85714293;stroke-miterlimit:4;stroke-dasharray:none;stroke-opacity:1"
       id="path1002"
       cx="32"
       cy="29"
       rx="13.000001"
       ry="13" />
    <path
       style="display:inline;opacity:1;fill:#0277bd;fill-opacity:1;stroke:none;stroke-width:1.85714293;stroke-miterlimit:4;stroke-dasharray:none;stroke-opacity:1"
       d="M 32,20 A 13.000001,13 0 0 0 19.638672,29 H 19 v 4 A 13.000001,13 0 0 0 32,46 13.000001,13 0 0 0 45,33 V 29 H 44.35156 A 13.000001,13 0 0 0 32,20 Z"
       id="path1002-7-0"
       inkscape:connector-curvature="0" />
    <ellipse
       style="display:inline;opacity:1;fill:#03a9f4;fill-opacity:1;stroke:none;stroke-width:1.85714293;stroke-miterlimit:4;stroke-dasharray:none;stroke-opacity:1"
       id="path1002-7"
       cx="32"
       cy="29"
       rx="13.000001"
       ry="13" />
    <path
       style="display:inline;opacity:1;fill:#0277bd;fill-opacity:1;stroke:none;stroke-width:1.85714293;stroke-miterlimit:4;stroke-dasharray:none;stroke-opacity:1"
       d="m 93.999999,21 a 13.000001,13 0 0 0 -12.361328,9 h -0.638672 v 4 a 13.000001,13 0 0 0 13,13 A 13.000001,13 0 0 0 107,34 v -4 h -0.64844 A 13.000001,13 0 0 0 93.999999,21 Z"
       id="path1002-7-0-9"
       inkscape:connector-curvature="0" />
    <ellipse
       style="display:inline;opacity:1;fill:#03a9f4;fill-opacity:1;stroke:none;stroke-width:1.85714293;stroke-miterlimit:4;stroke-dasharray:none;stroke-opacity:1"
       id="path1002-7-3"
       cx="94"
       cy="30"
       rx="13.000001"
       ry="13" />
    <path
       style="display:inline;opacity:1;fill:#12c700;fill-opacity:1;stroke:none;stroke-width:1.85714293;stroke-miterlimit:4;stroke-dasharray:none;stroke-opacity:1"
       d="M 96.785,28.439141 99.40804,41.82 a 13.000001,13 0 0 0 7.55274,-11.003906 z"
       id="path1002-7-3-6"
       inkscape:connector-curvature="0" />
    <path
       style="display:inline;fill:#12c700;stroke:none;stroke-width:1px;stroke-linecap:butt;stroke-linejoin:miter;stroke-opacity:1;fill-opacity:1"
       d="M 100.25586 18.607422 L 95.591797 19.849609 L 98.730469 19.849609 L 99.216797 23.5625 L 95.990234 27.539062 L 106.07422 25.193359 A 13.000001 13 0 0 0 100.25586 18.607422 z "
       id="path1095" />
    <path
       style="display:inline;fill:#12c700;stroke:none;stroke-width:1px;stroke-linecap:butt;stroke-linejoin:miter;stroke-opacity:1;fill-opacity:1"
       d="M 90.511719 17.478516 A 13.000001 13 0 0 0 81 30 A 13.000001 13 0 0 0 90.162109 42.419922 L 90.164062 42.419922 L 93.869141 28.865234 L 83.835938 26.65625 L 86.974609 21.882812 L 87.902344 24.490234 L 90.511719 17.478516 z "
       id="path1152" />
    <path
       style="display:inline;fill:#0a7e07;stroke:none;stroke-width:1px;stroke-linecap:butt;stroke-linejoin:miter;stroke-opacity:1;fill-opacity:1"
       d="M 106.96094 30.816406 A 13.000001 13 0 0 1 99.408203 41.820312 L 99.408203 45.806641 A 13.000001 13 0 0 0 106.96094 34.96875 L 106.96094 30.816406 z "
       id="path1173" />
    <path
       style="display:inline;opacity:1;fill:#0a7e07;fill-opacity:1;stroke:none;stroke-width:1.85714293;stroke-miterlimit:4;stroke-dasharray:none;stroke-opacity:1"
       d="M 81 30 L 81 34 A 13.000001 13 0 0 0 90.162109 46.40625 L 90.162109 42.419922 A 13.000001 13 0 0 1 81 30 z "
       id="path1002-7-0-9-2" />
    <path
       style="display:inline;opacity:1;fill:#0288d1;fill-opacity:1;stroke:none;stroke-width:1.85714293;stroke-miterlimit:4;stroke-dasharray:none;stroke-opacity:1"
       d="m 32.000001,20 a 13.000001,13 0 0 0 -12.361328,9 h -0.638672 v 4 a 13.000001,13 0 0 0 13,13 A 13.000001,13 0 0 0 45,33 V 29 H 44.35156 A 13.000001,13 0 0 0 32.000001,20 Z"
       id="path1002-7-0-9-23"
       inkscape:connector-curvature="0" />
    <ellipse
       style="display:inline;opacity:1;fill:#4fc3f7;fill-opacity:1;stroke:none;stroke-width:1.85714293;stroke-miterlimit:4;stroke-dasharray:none;stroke-opacity:1"
       id="path1002-7-3-7"
       cx="32"
       cy="28.999998"
       rx="13.000001"
       ry="13" />
    <path
       style="display:inline;opacity:1;fill:#259b24;fill-opacity:1;stroke:none;stroke-width:1.85714293;stroke-miterlimit:4;stroke-dasharray:none;stroke-opacity:1"
       d="M 34.785,27.439141 37.40804,40.82 a 13.000001,13 0 0 0 7.55274,-11.003906 z"
       id="path1002-7-3-6-5"
       inkscape:connector-curvature="0" />
    <path
       inkscape:connector-curvature="0"
       style="display:inline;fill:#259b24;fill-opacity:1;stroke:none;stroke-width:1px;stroke-linecap:butt;stroke-linejoin:miter;stroke-opacity:1"
       d="m 38.25586,17.607422 -4.664061,1.242187 h 3.138671 l 0.48633,3.712891 -3.22656,3.976562 10.08398,-2.345703 a 13.000001,13 0 0 0 -5.81836,-6.585937 z"
       id="path1095-9" />
    <path
       inkscape:connector-curvature="0"
       style="display:inline;fill:#259b24;fill-opacity:1;stroke:none;stroke-width:1px;stroke-linecap:butt;stroke-linejoin:miter;stroke-opacity:1"
       d="M 28.511721,16.478516 A 13.000001,13 0 0 0 19.000002,29 13.000001,13 0 0 0 28.162111,41.419922 h 0.002 L 31.86919,27.865234 21.835987,25.65625 l 3.138671,-4.773438 0.927735,2.607422 z"
       id="path1152-2" />
    <path
       inkscape:connector-curvature="0"
       style="display:inline;fill:#056f00;fill-opacity:1;stroke:none;stroke-width:1px;stroke-linecap:butt;stroke-linejoin:miter;stroke-opacity:1"
       d="m 44.96094,29.816406 a 13.000001,13 0 0 1 -7.55273,11.003906 v 3.986329 A 13.000001,13 0 0 0 44.96094,33.96875 Z"
       id="path1173-2" />
    <path
       inkscape:connector-curvature="0"
       style="display:inline;opacity:1;fill:#056f00;fill-opacity:1;stroke:none;stroke-width:1.85714293;stroke-miterlimit:4;stroke-dasharray:none;stroke-opacity:1"
       d="m 19.000002,29 v 4 a 13.000001,13 0 0 0 9.162109,12.40625 V 41.419922 A 13.000001,13 0 0 1 19.000002,29 Z"
       id="path1002-7-0-9-2-8" />
  </g>
</svg>
